<?xml version="1.0" encoding="UTF-8"?>
<svg version="1.1" xmlns="http://www.w3.org/2000/svg" width="512" height="512">
<path d="M0 0 C3.34135499 0.00534772 6.68257493 0.00003553 10.02392578 -0.00634766 C26.05497909 -0.01402933 41.45339909 0.28198306 57.16845703 3.81787109 C58.37308594 4.0833374 59.57771484 4.34880371 60.81884766 4.62231445 C75.49562384 7.93161147 89.73923308 11.95108607 103.48095703 18.13037109 C104.77813158 18.68480588 106.07638425 19.2367225 107.37548828 19.78662109 C126.44221759 27.89830418 143.94302036 38.6779561 160.48095703 51.13037109 C161.07247559 51.5709082 161.66399414 52.01144531 162.2734375 52.46533203 C180.19397966 65.95000168 197.62009173 82.69843972 210.48095703 101.13037109 C211.13290039 102.05108398 211.78484375 102.97179687 212.45654297 103.92041016 C220.67827806 115.57363592 228.6520989 127.06506679 234.48095703 140.13037109 C235.28692448 141.69625071 236.0992028 143.25890188 236.91845703 144.81787109 C246.45896961 164.02442931 253.09999229 184.16909796 257.48095703 205.13037109 C257.88689087 207.04172852 257.88689087 207.04172852 258.30102539 208.99169922 C261.03568259 223.1899446 260.94204005 237.4650559 260.87207031 251.86376953 C260.85497903 255.4169249 260.86512853 258.96940589 260.88240623 262.52253819 C260.96253271 281.99173548 259.70075551 300.28241099 254.48095703 319.13037109 C254.13970617 320.46074012 253.79997377 321.79149919 253.46142578 323.12255859 C249.01750836 340.24504905 242.72218847 356.48843182 234.48095703 372.13037109 C233.70808896 373.75440433 232.93712384 375.37934515 232.16845703 377.00537109 C219.71518025 401.83053068 201.29694454 423.25775301 181.91845703 442.88037109 C181.00640503 443.81200073 181.00640503 443.81200073 180.07592773 444.76245117 C178.58311405 446.25822469 177.03637508 447.69980973 175.48095703 449.13037109 C174.82095703 449.13037109 174.16095703 449.13037109 173.48095703 449.13037109 C173.48095703 449.79037109 173.48095703 450.45037109 173.48095703 451.13037109 C171.71080655 452.75485624 169.93989604 454.22523876 168.04345703 455.69287109 C167.44235107 456.16104248 166.84124512 456.62921387 166.22192383 457.11157227 C159.90244116 461.94402738 153.35848937 466.45264359 146.79345703 470.94287109 C145.74939697 471.65967041 144.70533691 472.37646973 143.62963867 473.11499023 C134.65564286 479.19077225 125.47724286 484.49318669 115.48095703 488.69287109 C114.20970815 489.23486621 112.93888445 489.77785953 111.66845703 490.32177734 C110.67821533 490.74354248 110.67821533 490.74354248 109.66796875 491.17382812 C107.15147735 492.27447707 104.66658559 493.43660913 102.17626953 494.59521484 C84.69387835 502.55610763 66.31203936 506.80168113 47.48095703 510.13037109 C46.71900528 510.29366409 45.95705353 510.45695709 45.17201233 510.62519836 C37.54917964 512.18303718 30.15745121 512.46828695 22.39111328 512.50146484 C21.03901601 512.51047804 19.68691946 512.5196003 18.33482361 512.52882385 C15.50501117 512.54521873 12.67531543 512.55299358 9.84545898 512.5559082 C7.00750504 512.56016686 4.17048064 512.58068755 1.33276367 512.61743164 C-38.34463177 513.12157571 -76.26566072 504.70423697 -111.51904297 486.13037109 C-113.14307621 485.35750302 -114.76801703 484.5865379 -116.39404297 483.81787109 C-154.53605521 464.68433708 -186.44343316 433.29025333 -210.33154297 398.44287109 C-211.04947021 397.39752197 -211.76739746 396.35217285 -212.50708008 395.27514648 C-216.92294971 388.75045069 -220.8824489 382.11787287 -224.51904297 375.13037109 C-225.08751953 374.06044922 -225.65599609 372.99052734 -226.24169922 371.88818359 C-229.31855336 365.84212036 -231.95009077 359.74490934 -234.30810547 353.38427734 C-235.08483605 351.29712709 -235.88982829 349.22015294 -236.72998047 347.15771484 C-248.26838584 318.67916656 -252.38753275 289.29804941 -252.03723145 258.77423096 C-252.01285366 255.98461119 -252.01865954 253.19537109 -252.02411366 250.40567589 C-252.04422259 235.10767994 -251.54264068 220.16578598 -248.51904297 205.13037109 C-248.3019442 204.03462769 -248.3019442 204.03462769 -248.08045959 202.91674805 C-240.53097586 165.35313057 -223.48428154 130.58100901 -200.51904297 100.13037109 C-200.06787109 99.52821777 -199.61669922 98.92606445 -199.15185547 98.30566406 C-192.34856153 89.32465829 -184.84037028 81.17576233 -176.89404297 73.19287109 C-176.03576904 72.32911865 -175.17749512 71.46536621 -174.29321289 70.57543945 C-168.33938644 64.68739488 -162.08715366 59.32040437 -155.51904297 54.13037109 C-153.98376953 52.91220703 -153.98376953 52.91220703 -152.41748047 51.66943359 C-144.08499883 45.34913018 -135.37959199 39.67780713 -126.51904297 34.13037109 C-125.46587891 33.46779297 -124.41271484 32.80521484 -123.32763672 32.12255859 C-115.98434226 27.66662754 -108.32317928 24.23088191 -100.41601562 20.92382812 C-98.67990775 20.19765688 -96.94880985 19.45953777 -95.21826172 18.72021484 C-89.53497507 16.30979366 -83.81034333 14.08731768 -77.99169922 12.02490234 C-76.36071734 11.43486309 -74.74349452 10.80509995 -73.14404297 10.13427734 C-63.99067337 6.63365832 -53.91346681 4.92609585 -44.33154297 2.94287109 C-43.15869751 2.6927124 -43.15869751 2.6927124 -41.9621582 2.4375 C-28.10877539 -0.35007967 -14.06515551 -0.02676724 0 0 Z " fill="#FE5A5A" transform="translate(251.51904296875,-0.13037109375)"/>
<path d="M0 0 C16.15202081 -0.04649019 32.30401359 -0.08208703 48.45608521 -0.10362434 C55.95740043 -0.11389459 63.45867307 -0.12787257 70.95996094 -0.15087891 C77.50545152 -0.17094409 84.05091124 -0.18374725 90.59643173 -0.18817699 C94.05553769 -0.19076238 97.51455541 -0.19674804 100.97363281 -0.21146011 C129.79961204 -0.32930307 162.25822844 0.31111245 184.75 21.25 C192.30957424 29.40781393 196.28145469 38.31908029 199 49 C199.35835937 50.22332031 199.71671875 51.44664062 200.0859375 52.70703125 C201.33827385 57.77980902 201.34239896 62.79801512 201.3125 68 C201.30512817 69.51750854 201.30512817 69.51750854 201.29760742 71.06567383 C201.03542582 88.02142892 197.25759863 103.21290507 187 117 C185.88625 118.546875 185.88625 118.546875 184.75 120.125 C179.11958976 126.01133798 172.30487713 129.91701021 165.15625 133.72265625 C163.99931641 134.34019775 162.84238281 134.95773926 161.65039062 135.59399414 C160.33844727 136.28996704 160.33844727 136.28996704 159 137 C159.63276855 138.30312134 159.63276855 138.30312134 160.27832031 139.63256836 C167.27117087 154.035591 174.26324962 168.4388366 181.1875 182.875 C181.66058594 183.85799072 182.13367188 184.84098145 182.62109375 185.85375977 C184.93505599 190.66678551 187.2327292 195.48625865 189.49165344 200.32540894 C190.34651506 202.1538092 191.20628389 203.9798209 192.06762695 205.80517578 C193.14971473 208.10125582 194.22319536 210.40142249 195.28588867 212.70654297 C199.66575439 221.95882354 205.07929341 232.42455838 214 238 C216.64 238.33 219.28 238.66 222 239 C222 245.93 222 252.86 222 260 C164.94924231 260.88910272 164.94924231 260.88910272 146.125 243.75 C139.35116407 236.20163203 135.63552512 226.220699 131.875 216.9375 C131.14748535 215.1599231 131.14748535 215.1599231 130.40527344 213.34643555 C128.59045536 208.90288672 126.79554742 204.4513623 125 200 C124.60099487 199.01237671 124.20198975 198.02475342 123.79089355 197.00720215 C121.06461025 190.25891259 118.34492349 183.50800747 115.63238525 176.75418091 C114.71016933 174.45816906 113.78711306 172.16249457 112.86322021 169.86715698 C111.55619742 166.61731716 110.25394718 163.36560715 108.953125 160.11328125 C108.55370697 159.12186127 108.15428894 158.13044128 107.74276733 157.10897827 C107.19962387 155.74659531 107.19962387 155.74659531 106.64550781 154.35668945 C106.16685272 153.16218925 106.16685272 153.16218925 105.67852783 151.94355774 C105 150 105 150 105 148 C99.72 148 94.44 148 89 148 C89.06306049 158.14507337 89.13859141 168.28984769 89.23571491 178.43465328 C89.28032863 183.14595242 89.31960434 187.85716688 89.34643555 192.56860352 C89.37255861 197.12048815 89.41302398 201.67204533 89.46318626 206.22372627 C89.47979432 207.95509309 89.49134617 209.68651646 89.49761391 211.41795158 C89.39665745 224.04024661 89.39665745 224.04024661 93 236 C96.60498719 238.4033248 99.51127092 238.43713424 103.6875 238.625 C106.100625 238.74875 108.51375 238.8725 111 239 C111 245.93 111 252.86 111 260 C74.37 260 37.74 260 0 260 C0 253.4 0 246.8 0 240 C2.330625 239.896875 4.66125 239.79375 7.0625 239.6875 C14.97505625 239.27280437 14.97505625 239.27280437 22 236 C26.26322572 229.79654462 27.14935798 223.7887441 27.14044189 216.39764404 C27.14341302 215.62807947 27.14638414 214.8585149 27.1494453 214.0656302 C27.15812252 211.48482319 27.15963972 208.90406263 27.16113281 206.32324219 C27.16576169 204.47358603 27.17078644 202.62393083 27.17617798 200.77427673 C27.18929757 195.74727762 27.19574612 190.72029187 27.20018864 185.69327831 C27.20312017 182.55205035 27.20722514 179.41082604 27.21169281 176.26959991 C27.2253668 166.43983596 27.23503385 156.61008034 27.2388947 146.78030753 C27.24337486 135.43631345 27.26092125 124.0924399 27.2898953 112.74848247 C27.31151793 103.97807085 27.3215993 95.20769313 27.32293582 86.43725514 C27.32398346 81.19999257 27.3298826 75.96284332 27.34775543 70.72560883 C27.36424602 65.7975326 27.36638677 60.86965475 27.35761642 55.94156075 C27.35684657 54.13562297 27.36118192 52.3296745 27.37107468 50.52376366 C27.38381593 48.05237111 27.37790583 45.58167887 27.36749268 43.11029053 C27.37554908 42.40093251 27.38360548 41.69157449 27.39190602 40.96072078 C27.33121809 34.77368948 26.10055979 29.10055979 21.625 24.625 C16.64940406 21.54486918 12.53179745 20.70271761 6.6875 20.375 C3.3771875 20.189375 3.3771875 20.189375 0 20 C0 13.4 0 6.8 0 0 Z " fill="#FFFEFE" transform="translate(145,126)"/>
<path d="M0 0 C26.91039427 0 26.91039427 0 36 8 C48.57398148 24.06390288 48.59365858 44.95781356 46.765625 64.50634766 C45.19455257 76.48319095 41.97940115 89.80749177 31.9765625 97.5703125 C21.48032402 104.39872043 14.41584122 102 0 102 C0 68.34 0 34.68 0 0 Z " fill="#FF5A5A" transform="translate(234,149)"/>
</svg>
